<svg width="1488" height="1672" viewBox="0 0 1488 1672" fill="none" xmlns="http://www.w3.org/2000/svg">
<path fill-rule="evenodd" clip-rule="evenodd" d="M709.727 10.3496L40.6947 387.748C15.5519 401.931 0 428.56 0 457.427V1209.64C0 1238.35 15.3893 1264.86 40.3236 1279.11L709.353 1661.22C734.093 1675.35 764.481 1675.26 789.134 1660.97L1448.1 1279.19C1472.8 1264.88 1488 1238.51 1488 1209.97V457.098C1488 428.407 1472.64 401.912 1447.73 387.662L788.764 10.5921C764.301 -3.40629 734.276 -3.49841 709.727 10.3496ZM709.112 114.321L131.279 439.924C106.119 454.101 90.5526 480.74 90.5526 509.62V1158.09C90.5526 1186.82 105.956 1213.34 130.908 1227.58L708.739 1557.25C733.462 1571.36 763.819 1571.26 788.455 1557L1357.52 1227.66C1382.23 1213.36 1397.45 1186.97 1397.45 1158.42V509.292C1397.45 480.587 1382.07 454.082 1357.15 439.837L788.085 114.563C763.638 100.589 733.645 100.497 709.112 114.321Z" fill="white"/>
<path fill-rule="evenodd" clip-rule="evenodd" d="M708.005 299.036L292.852 532.609C267.665 546.78 252.079 573.432 252.079 602.332V1066.53C252.079 1095.28 267.503 1121.82 292.481 1136.05L707.631 1372.54C732.331 1386.61 762.642 1386.51 787.255 1372.29L1195.95 1136.13C1220.68 1121.83 1235.92 1095.43 1235.92 1066.86V602.003C1235.92 573.279 1220.52 546.76 1195.57 532.522L786.886 299.278C762.462 285.339 732.513 285.247 708.005 299.036ZM707.267 400.72L383.315 583.532C358.178 597.716 342.631 624.341 342.631 653.204V1016.29C342.631 1045 358.016 1071.51 382.943 1085.75L706.894 1270.85C731.64 1284.99 762.04 1284.9 786.698 1270.6L1105.48 1085.84C1130.17 1071.53 1145.37 1045.16 1145.37 1016.62V652.875C1145.37 624.188 1130.01 597.697 1105.11 583.446L786.328 400.963C761.859 386.956 731.823 386.863 707.267 400.72Z" fill="white"/>
<path d="M538.299 700.708L730.259 592.584C739.763 587.23 751.381 587.266 760.852 592.677L949.866 700.674C959.525 706.193 965.487 716.465 965.487 727.59V943.013C965.487 954.079 959.589 964.305 950.01 969.847L760.995 1079.19C751.451 1084.72 739.692 1084.75 730.114 1079.29L538.156 969.814C528.484 964.298 522.513 954.02 522.513 942.886V727.718C522.513 716.525 528.547 706.201 538.299 700.708Z" fill="white"/>
</svg>
